# xmcd
#
# Track frame offsets:
#	182
#	21840
#	34782
#	56520
#	69460
#	81385
#	94705
#	111947
#	121890
#	136660
#	154675
#	168467
#
# Disc length: 2532 seconds
#
# Revision: 0
# Processed by: cddbd v1.4PL0 Copyright (c) Steve Scherf et al.
# Submitted via: EasyCDDAExtractor 4.6.0.1
#
DISCID=9709e20c
DTITLE=Raul Seixas  - Caminhos
DYEAR=1900
DGENRE=
TTITLE0=Gîtâ
TTITLE1=Ouro de tolo
TTITLE2=Eu nasci há 10 mil anos atrás
TTITLE3=Sociedade alternativa
TTITLE4=How could I know
TTITLE5=Medo da chuva
TTITLE6=Metamorfose ambulante
TTITLE7=Sessão das 10
TTITLE8=Let me sing, let me sing
TTITLE9=Mosca na sopa
TTITLE10=O homem
TTITLE11=Meu amigo Pedro
EXTD=
EXTT0=
EXTT1=
EXTT2=
EXTT3=
EXTT4=
EXTT5=
EXTT6=
EXTT7=
EXTT8=
EXTT9=
EXTT10=
EXTT11=
PLAYORDER=
